<svg width="133" height="51" viewBox="0 0 133 51" fill="none" xmlns="http://www.w3.org/2000/svg">
	<path
		d="M9.53315 40.9231C8.56906 40.4673 7.88853 39.7266 7.49155 38.701C7.09457 37.6754 7.2647 36.5928 8.00195 35.4533C8.45564 34.5986 9.13617 33.8579 10.0436 33.2311C11.0076 32.5474 12.1135 31.7212 13.3612 30.7526C14.6088 29.784 15.8564 28.445 17.1041 26.7357C17.0474 26.6217 16.9907 26.5078 16.934 26.3938C16.934 26.2229 16.9056 26.1089 16.8489 26.052C14.6372 26.2799 12.794 26.6787 11.3196 27.2485C9.84506 27.8183 8.56906 28.3311 7.49155 28.7869C6.41403 29.2427 5.36488 29.4706 4.34408 29.4706C2.98301 29.5276 1.9055 29.1572 1.11154 28.3596C0.317583 27.5049 -0.05104 26.5648 0.0056711 25.5392C-0.05104 24.5136 0.317583 23.6019 1.11154 22.8043C1.9055 22.0066 2.98301 21.6077 4.34408 21.6077C5.36488 21.6077 6.41403 21.8356 7.49155 22.2915C8.56906 22.7473 9.84506 23.2316 11.3196 23.7444C12.794 24.2572 14.6088 24.656 16.7638 24.9409L17.3593 24.4281C15.9415 22.7188 14.5804 21.4083 13.2761 20.4967C12.0284 19.528 10.9226 18.7019 9.95848 18.0181C9.0511 17.3344 8.34222 16.5937 7.83181 15.796C7.2647 14.5425 7.09457 13.4315 7.32141 12.4628C7.60497 11.4372 8.20044 10.6396 9.10782 10.0698C10.0719 9.5 11.0927 9.35756 12.1702 9.64244C13.3044 9.92733 14.2402 10.6111 14.9774 11.6936C15.4878 12.4913 15.7997 13.4599 15.9132 14.5995C16.0833 15.739 16.3101 17.078 16.5937 18.6164C16.8772 20.0978 17.416 21.8356 18.21 23.8298C18.3234 23.7729 18.5786 23.7444 18.9756 23.7444C19.8829 21.8071 20.4501 20.0978 20.6769 18.6164C20.9037 17.135 21.0739 15.8245 21.1873 14.685C21.3007 13.5454 21.5843 12.5483 22.038 11.6936C22.7752 10.5541 23.6826 9.87035 24.7601 9.64244C25.8376 9.41454 26.8301 9.55698 27.7374 10.0698C28.7015 10.4686 29.3537 11.2093 29.694 12.2919C30.091 13.3175 29.9208 14.4001 29.1836 15.5396C28.7299 16.3943 28.021 17.1635 27.0569 17.8472C26.0928 18.5309 24.9869 19.3571 23.7393 20.3257C22.5484 21.2374 21.3007 22.5763 19.9964 24.3426C20.1098 24.3996 20.1665 24.5136 20.1665 24.6845C20.1665 24.7985 20.1949 24.9124 20.2516 25.0264C22.52 24.7415 24.3915 24.3142 25.866 23.7444C27.3405 23.1746 28.6165 22.6618 29.694 22.206C30.7715 21.7502 31.7923 21.5223 32.7564 21.5223C34.2309 21.5223 35.3651 21.9211 36.1591 22.7188C36.953 23.5165 37.3216 24.4281 37.2649 25.4537C37.2649 26.4793 36.8679 27.3909 36.074 28.1886C35.28 28.9863 34.1742 29.3852 32.7564 29.3852C31.7923 29.3852 30.7715 29.1857 29.694 28.7869C28.6165 28.3311 27.3405 27.8468 25.866 27.334C24.3915 26.7642 22.5484 26.3653 20.3366 26.1374L19.8262 26.6502C21.244 28.3026 22.5767 29.6131 23.8244 30.5817C25.072 31.5503 26.1779 32.3765 27.142 33.0602C28.1061 33.687 28.815 34.3992 29.2686 35.1969C29.9492 36.4504 30.1477 37.5899 29.8641 38.6155C29.6373 39.5841 29.0702 40.3533 28.1628 40.9231C27.142 41.4929 26.0645 41.6353 24.9302 41.3504C23.796 41.0655 22.8886 40.3818 22.2081 39.2992C21.6977 38.4446 21.3574 37.476 21.1873 36.3934C21.0739 35.2538 20.8754 33.9434 20.5918 32.4619C20.3083 30.9236 19.7412 29.1857 18.8905 27.2485C18.7771 27.3055 18.5219 27.334 18.1249 27.334C17.2175 29.2712 16.6504 30.9805 16.4236 32.4619C16.1967 33.9434 16.0266 35.2538 15.9132 36.3934C15.8564 37.476 15.5729 38.4446 15.0625 39.2992C14.4387 40.4958 13.5596 41.208 12.4254 41.4359C11.3479 41.6068 10.3838 41.4359 9.53315 40.9231Z"
		fill="black"
	/>
	<path
		d="M48.1782 40V25.788H44.9662V20.684L52.0502 21.168V20.816C50.2608 20.6107 48.9115 20.1853 48.0022 19.54C47.0928 18.8947 46.4768 18.1613 46.1542 17.34C45.8608 16.5187 45.7142 15.7707 45.7142 15.096C45.7142 13.776 46.0662 12.632 46.7702 11.664C47.5035 10.6667 48.5008 9.904 49.7622 9.376C51.0528 8.848 52.5048 8.584 54.1182 8.584C55.4382 8.584 56.6115 8.76 57.6382 9.112C58.6942 9.464 59.6475 9.97733 60.4982 10.652L59.9262 17.164C59.1342 16.6067 58.3715 16.196 57.6382 15.932C56.9048 15.6387 56.1568 15.492 55.3942 15.492C54.5142 15.492 53.7808 15.6827 53.1942 16.064C52.6368 16.4453 52.3582 17.0467 52.3582 17.868C52.3582 18.308 52.4755 18.7187 52.7102 19.1C52.9448 19.4813 53.3115 19.7893 53.8102 20.024C54.3382 20.2293 55.0422 20.332 55.9222 20.332H60.3222V25.788H55.2182V40H48.1782ZM62.6091 40V9.2H69.7371V40H62.6091ZM72.9216 40V16.768H80.0496V40H72.9216ZM76.4416 15.096C75.0923 15.096 74.051 14.8173 73.3176 14.26C72.6136 13.6733 72.2616 12.8373 72.2616 11.752C72.2616 10.6373 72.6136 9.80133 73.3176 9.244C74.051 8.65733 75.0923 8.364 76.4416 8.364C77.8203 8.364 78.8616 8.65733 79.5656 9.244C80.299 9.83067 80.6656 10.6667 80.6656 11.752C80.6656 12.808 80.299 13.6293 79.5656 14.216C78.8616 14.8027 77.8203 15.096 76.4416 15.096ZM83.2341 46.512V25.04V16.768H89.4821V23.94H89.7901C90.1128 22.2093 90.5968 20.772 91.2421 19.628C91.8875 18.4547 92.7088 17.5893 93.7061 17.032C94.7328 16.4453 95.9648 16.152 97.4021 16.152C99.2208 16.152 100.761 16.6213 102.022 17.56C103.313 18.4693 104.281 19.8333 104.926 21.652C105.601 23.4413 105.938 25.656 105.938 28.296C105.938 31.1413 105.557 33.4733 104.794 35.292C104.061 37.1107 103.049 38.46 101.758 39.34C100.467 40.1907 99.0008 40.616 97.3581 40.616C96.0381 40.616 94.8648 40.3373 93.8381 39.78C92.8408 39.2227 92.0048 38.372 91.3301 37.228C90.6848 36.0547 90.2301 34.588 89.9661 32.828H89.5701C89.7168 33.6787 89.8488 34.5733 89.9661 35.512C90.0835 36.4213 90.1715 37.3307 90.2301 38.24C90.3181 39.12 90.3621 39.9707 90.3621 40.792V46.512H83.2341ZM94.6741 34.764C95.6128 34.764 96.3755 34.4707 96.9621 33.884C97.5781 33.2973 98.0181 32.5347 98.2821 31.596C98.5755 30.628 98.7221 29.616 98.7221 28.56C98.7221 27.3867 98.5608 26.3307 98.2381 25.392C97.9448 24.424 97.4901 23.6613 96.8741 23.104C96.2875 22.5173 95.5541 22.224 94.6741 22.224C94.1168 22.224 93.5741 22.356 93.0461 22.62C92.5181 22.8547 92.0488 23.236 91.6381 23.764C91.2275 24.2627 90.8901 24.908 90.6261 25.7C90.3915 26.492 90.2741 27.4453 90.2741 28.56V28.824C90.2741 29.704 90.3621 30.4667 90.5381 31.112C90.7141 31.7573 90.9488 32.3147 91.2421 32.784C91.5355 33.2533 91.8728 33.6347 92.2541 33.928C92.6355 34.2213 93.0315 34.4413 93.4421 34.588C93.8528 34.7053 94.2635 34.764 94.6741 34.764ZM108.586 46.512V25.04V16.768H114.834V23.94H115.142C115.464 22.2093 115.948 20.772 116.594 19.628C117.239 18.4547 118.06 17.5893 119.058 17.032C120.084 16.4453 121.316 16.152 122.754 16.152C124.572 16.152 126.112 16.6213 127.374 17.56C128.664 18.4693 129.632 19.8333 130.278 21.652C130.952 23.4413 131.29 25.656 131.29 28.296C131.29 31.1413 130.908 33.4733 130.146 35.292C129.412 37.1107 128.4 38.46 127.11 39.34C125.819 40.1907 124.352 40.616 122.71 40.616C121.39 40.616 120.216 40.3373 119.19 39.78C118.192 39.2227 117.356 38.372 116.682 37.228C116.036 36.0547 115.582 34.588 115.318 32.828H114.922C115.068 33.6787 115.2 34.5733 115.318 35.512C115.435 36.4213 115.523 37.3307 115.582 38.24C115.67 39.12 115.714 39.9707 115.714 40.792V46.512H108.586ZM120.026 34.764C120.964 34.764 121.727 34.4707 122.314 33.884C122.93 33.2973 123.37 32.5347 123.634 31.596C123.927 30.628 124.074 29.616 124.074 28.56C124.074 27.3867 123.912 26.3307 123.59 25.392C123.296 24.424 122.842 23.6613 122.226 23.104C121.639 22.5173 120.906 22.224 120.026 22.224C119.468 22.224 118.926 22.356 118.398 22.62C117.87 22.8547 117.4 23.236 116.99 23.764C116.579 24.2627 116.242 24.908 115.978 25.7C115.743 26.492 115.626 27.4453 115.626 28.56V28.824C115.626 29.704 115.714 30.4667 115.89 31.112C116.066 31.7573 116.3 32.3147 116.594 32.784C116.887 33.2533 117.224 33.6347 117.606 33.928C117.987 34.2213 118.383 34.4413 118.794 34.588C119.204 34.7053 119.615 34.764 120.026 34.764Z"
		fill="black"
	/>
</svg>
